<svg fill="#000000" height="200px" width="200px" version="1.1" id="Layer_1" xmlns="http://www.w3.org/2000/svg" xmlns:xlink="http://www.w3.org/1999/xlink" viewBox="0 0 195.32 195.32" xml:space="preserve"><g id="SVGRepo_bgCarrier" stroke-width="0"></g><g id="SVGRepo_tracerCarrier" stroke-linecap="round" stroke-linejoin="round"></g><g id="SVGRepo_iconCarrier"> <g> <g> <g> <path d="M156.632,23.1H38.824c-21.332,0-38.688,15.572-38.688,34.708v11.556H0v99.296h16.328c0.236,0.628,0.54,1.228,1.032,1.72 c1.016,1.016,2.36,1.58,3.788,1.584l6.008,0.012c0,0,0.004,0,0.008,0c1.424,0,2.768-0.56,3.784-1.572 c0.504-0.5,0.832-1.104,1.088-1.744h131.04c0.744,2.048,2.624,3.548,4.932,3.552l6.004,0.008c0,0,0.004,0,0.008,0 c1.424,0,2.768-0.56,3.784-1.572c0.564-0.564,0.896-1.26,1.136-1.992h16.24V76.608c0.068-0.8,0.136-1.6,0.136-2.412V57.808h0.004 C195.32,38.672,177.964,23.1,156.632,23.1z M4.104,73.336h77.62v1.916H4.132c-0.02-0.352-0.028-0.704-0.028-1.056V73.336z M19.072,47.412c2.576-0.748,4.976-2,7.296-3.212c0.696-0.36,1.388-0.724,2.084-1.072c2.436-1.216,4.948-2.24,7.5-3.148v10.492 l-23.996,4.864c-0.272,0.056-0.548,0.108-0.824,0.16c0.08-2.664,0.844-5.216,2.164-7.58 C15.568,48.156,17.704,47.812,19.072,47.412z M13.788,47.056c4.012-6.368,12.2-11.192,22.164-12.868v4.844 c-2.692,0.94-5.344,2.008-7.908,3.288c-0.7,0.352-1.4,0.716-2.092,1.08c-2.284,1.192-4.644,2.424-7.128,3.148 C17.064,47.064,15.376,47.176,13.788,47.056z M12.136,56.228L35.952,51.4v10.852c-0.12,0.028-0.244,0.052-0.364,0.08 c-0.944,0.224-1.888,0.448-2.84,0.664c-6.368,1.44-13.232,2.456-20.392,3.02c-0.4,0.032-0.832,0.044-1.256,0.06v-9.644 C11.448,56.368,11.792,56.3,12.136,56.228z M12.428,66.92c7.208-0.568,14.108-1.588,20.524-3.04 c0.952-0.216,1.9-0.44,2.848-0.668c0.048-0.012,0.104-0.024,0.152-0.036v3.172c-4.392,0.896-8.844,1.72-13.372,2.444H11.144 c-0.028-0.348-0.044-0.7-0.044-1.056v-0.752C11.548,66.968,12.004,66.956,12.428,66.92z M35.952,67.28v1.524h-8.144 C30.544,68.32,33.268,67.824,35.952,67.28z M38.22,68.804v-34.94c1.772-0.208,3.584-0.34,5.44-0.34h10.792v35.28H38.22z M80.988,48.964c-0.012,1.28-0.08,2.616-0.752,3.644c-0.772,1.176-1.972,1.444-2.844,1.46h-0.096 c-1.952,0-4.224-1.192-5.424-2.864c-1.028-1.428-1.708-3.124-2.364-4.764c-0.676-1.68-1.376-3.42-2.456-4.932 c-2.52-3.528-6.46-5.024-10.328-5.568v-2.42h22.2v0.004C80.308,38.56,81.028,43.74,80.988,48.964z M66.316,42.032 c1.016,1.424,1.692,3.112,2.348,4.744c0.68,1.692,1.38,3.44,2.472,4.956c1.384,1.92,3.9,3.244,6.16,3.244c0.04,0,0.08,0,0.116,0 c1.54-0.032,2.808-0.696,3.584-1.868c0.808-1.236,0.892-2.78,0.904-4.136c0.04-5.228-0.672-10.408-2.032-15.448h7.488v25.372 h-0.008h-5.624v7.976c-7.816-1.436-14.428-5.032-18.548-10.288c-0.38-0.48-1.376-1.612-2.452-1.724 c-0.432-0.056-0.836,0.076-1.172,0.36c-0.896,0.744-0.596,2.128-0.496,2.584c0.86,3.952,2.592,7.74,4.996,10.996h-7.328V36.856 C60.348,37.384,63.996,38.788,66.316,42.032z M109.492,62.868v3.112h-23.8v-3.112H109.492z M89.612,57.704v-24.18h16.236v24.18 H89.612z M115.852,36.352c4.216-0.832,14.556-2.068,19.476,4.476c0.24,0.32,0.42,0.684,0.624,1.032v14.596 c-4.832,0.28-11.064-0.412-14.584-5.076c-1.052-1.396-1.768-3.064-2.464-4.676c-0.724-1.672-1.468-3.408-2.6-4.896 c-1.4-1.844-3.868-3.088-6.088-3.088c-0.092,0-0.184,0-0.272,0.004c-0.68,0.032-1.28,0.216-1.824,0.488V38.42h-0.008 C110.648,37.588,113.224,36.872,115.852,36.352z M108.112,37.472v-3.948h27.84v6.652c-5.276-6.812-15.916-5.572-20.28-4.716 C113.108,35.968,110.592,36.668,108.112,37.472z M109.98,39.624c0.076-0.004,0.148-0.004,0.228-0.004 c1.924,0,4.152,1.12,5.376,2.728c1.064,1.404,1.784,3.084,2.488,4.708c0.716,1.664,1.452,3.38,2.572,4.864 c3.748,4.968,10.276,5.72,15.312,5.436v9.56c-7.924-1.404-14.632-5.02-18.796-10.332c-0.38-0.48-1.376-1.612-2.452-1.724 c-0.432-0.056-0.836,0.076-1.172,0.36c-0.896,0.744-0.596,2.128-0.496,2.584c0.08,0.368,0.208,0.728,0.3,1.092h-5.224V40.228 h-0.004C108.732,39.816,109.42,39.652,109.98,39.624z M191.212,73.336v1.916H113.46v-1.916H191.212z M138.22,68.804v-35.28h13.58 c0.892,0,1.776,0.04,2.652,0.092v35.188H138.22z M184.356,67.748c0,0.352-0.016,0.704-0.044,1.056H177.8 c2.24-2.784,4.32-5.852,5.336-9.384c1.384-4.82,0.32-11.172-4.392-13.988c-2.708-1.62-6.468-1.856-10.292-0.628 c-2.56,0.816-4.928,2.132-7.228,3.404c-0.68,0.376-1.36,0.752-2.044,1.116c-0.808,0.428-1.64,0.808-2.464,1.196V33.808 c15.62,1.644,27.636,10.932,27.636,22.14v11.8H184.356z M156.72,51.528c0.972-0.452,1.944-0.9,2.896-1.404 c0.688-0.368,1.372-0.748,2.056-1.124c2.252-1.252,4.588-2.544,7.06-3.332c3.584-1.136,7.072-0.948,9.552,0.54 c4.32,2.584,5.276,8.476,3.984,12.96c-1.036,3.612-3.252,6.776-5.604,9.636h-19.936V51.528H156.72z M122.584,110.412 c1.3,5.2,6.148,8.224,10.248,9.32c4.644,1.24,9.652,0.752,14.076,0.316l31.852-3.12c1.852-0.18,3.728-0.336,5.604-0.476v9.088 c-2.568-0.52-5.036-0.356-6.644-0.112c-3.02,0.464-5.904,1.476-8.696,2.452c-0.836,0.292-1.672,0.588-2.516,0.868 c-7.028,2.332-14.4,3.7-21.912,4.06c-4.948,0.224-16.996-0.032-21.764-7.624c-1.012-1.616-1.604-3.464-2.184-5.248 c-0.592-1.856-1.212-3.772-2.304-5.496c-1.404-2.22-4.212-3.916-6.828-4.136c-1.752-0.132-3.196,0.376-4.204,1.496 c-1.068,1.2-1.324,2.808-1.48,4.224c-0.696,6.204-0.336,12.452,1.06,18.576c0.056,0.244,0.284,0.4,0.544,0.34 c0.244-0.056,0.396-0.296,0.34-0.54c-1.372-6.028-1.724-12.176-1.052-18.272c0.148-1.332,0.368-2.72,1.26-3.716 c1.02-1.14,2.42-1.28,3.448-1.196c2.312,0.192,4.896,1.756,6.136,3.716c1.032,1.624,1.628,3.488,2.208,5.288 c0.592,1.84,1.208,3.74,2.28,5.452c5.024,8,17.464,8.304,22.58,8.048c7.588-0.36,15.044-1.744,22.152-4.104 c0.844-0.28,1.688-0.576,2.528-0.872c2.752-0.964,5.596-1.96,8.536-2.408c2.316-0.356,4.528-0.272,6.504,0.168v20.476h-0.676 c-2.628,0.004-5.108,1-6.984,2.808c-1.888,1.82-2.924,4.232-2.92,6.792v1.14h-36.204c-1.304-0.552-2.6-1.132-3.864-1.776 c-0.74-0.376-1.472-0.764-2.204-1.152c-2.448-1.296-4.98-2.64-7.696-3.452c-2.392-0.716-6.984-1.56-10.884,0.824 c-2.128,1.308-3.48,3.316-4.256,5.556h-5.856c-3.32-6.156-4.664-13.68-5.488-21.164c-0.664-6.064-1.168-12.236-1.496-18.34 c-0.272-5.124-0.272-10.912,3.22-14.7c0.164-0.176,0.372-0.316,0.556-0.476c7.792-1.004,13.856-7.604,13.856-15.668V86.46h61.104 c0.188,2.264,1.152,4.38,2.848,6.012c1.864,1.796,4.332,2.788,6.944,2.804v4.952c-10.872,0.172-21.512,0.78-31.804,1.888 l-0.276,0.028c-3.452,0.372-7.02,0.756-10.708,0.156c-3.156-0.512-5.652-1.94-6.008-2.952c-0.084-0.232-0.04-0.42,0.136-0.616 c0.492-0.54,1.752-0.904,2.888-1.2c11.192-2.916,25.192-4.1,39.416-3.32c0.236-0.036,0.464-0.18,0.476-0.428 c0.012-0.248-0.18-0.464-0.428-0.48c-14.32-0.78-28.416,0.408-39.692,3.348c-1.324,0.344-2.672,0.744-3.332,1.468 c-0.4,0.44-0.512,0.984-0.324,1.524c0.592,1.692,3.908,3.092,6.72,3.548c1.448,0.236,2.872,0.328,4.268,0.328 c2.28,0,4.508-0.24,6.684-0.476l0.272-0.028c10.264-1.108,20.872-1.712,31.712-1.88v4.24c-1.568-0.38-3.268-0.528-4.816-0.564 c-7.536-0.196-14.76,0.136-21.528,0.952c-1.008,0.124-2.012,0.256-3.016,0.388c-3.752,0.5-7.66,1.012-11.868,0.908 c-5.016-0.128-11.564-1.528-13.812-3.872c-0.852-0.888-0.944-1.792-0.928-2.484c0.108-4.508,5.548-8.412,14.192-10.188 c8.8-1.808,20.684-1.352,31.02,1.204c0.248,0.064,0.492-0.084,0.552-0.332s-0.088-0.492-0.332-0.548 c-10.452-2.584-22.496-3.056-31.416-1.212c-9.084,1.864-14.8,6.1-14.916,11.052c-0.016,0.8,0.084,1.992,1.18,3.132 c2.444,2.548,9.116,4.016,14.444,4.152c4.272,0.1,8.22-0.412,12.008-0.912c1.004-0.132,2-0.264,3.008-0.388 c6.72-0.812,13.912-1.128,21.396-0.948c1.572,0.04,3.308,0.172,4.84,0.576v9.248c-1.908,0.144-3.812,0.304-5.692,0.488 l-31.852,3.12c-4.56,0.448-9.264,0.912-13.752-0.288c-4.84-1.292-8.608-4.692-9.6-8.664c-0.068-0.244-0.316-0.392-0.552-0.332 C122.672,109.924,122.524,110.172,122.584,110.412z M135.488,157.716h-25.852c0.732-1.932,1.924-3.652,3.768-4.784 c2.62-1.608,6.32-1.872,10.148-0.728c2.624,0.788,5.116,2.108,7.528,3.384c0.74,0.392,1.472,0.78,2.216,1.16 C134.008,157.112,134.76,157.384,135.488,157.716z M97.588,99.272c-6.564,0-11.9-5.34-11.9-11.904V67.112h23.8v20.256 C109.492,93.932,104.152,99.272,97.588,99.272z M113.46,84.188v-4.964h61.036l-0.008,4.964H113.46z M179.376,90.428 c-1.328-1.28-2.06-2.968-2.056-4.752l0.012-6.456h13.776c-0.016,0.396-0.032,0.78-0.032,1.312l-0.02,11.916l-6.652-0.008 C182.504,92.44,180.72,91.724,179.376,90.428z M118.028,68.8h-4.568v-9.452C114.404,62.74,115.944,65.976,118.028,68.8z M113.92,57.608c-0.192-0.876-0.128-1.428,0.192-1.696c0.144-0.128,0.304-0.18,0.496-0.152c0.504,0.052,1.208,0.58,1.836,1.38 c4.328,5.52,11.296,9.26,19.508,10.684v0.972h-16.948V68.8c0-0.1-0.008-0.2-0.072-0.284 C116.512,65.308,114.776,61.536,113.92,57.608z M81.724,67.784V68.8h-16.7c0-0.096-0.012-0.196-0.072-0.28 c-2.42-3.208-4.156-6.98-5.012-10.908c-0.192-0.876-0.128-1.428,0.192-1.696c0.144-0.128,0.304-0.18,0.496-0.152 c0.504,0.052,1.208,0.58,1.836,1.38C66.748,62.608,73.62,66.328,81.724,67.784z M81.724,79.224v4.964H20.692l-0.008-4.964H81.724 z M4.632,79.508c0.5,0.012,1.104,0.02,1.884,0.036l11.332-0.02l0.012,7.424c0.004,1.784-0.728,3.472-2.056,4.748 c-1.344,1.296-3.124,2.008-5.024,2.012L4.124,93.72l-0.02-11.916c0-0.732-0.024-1.328-0.044-1.812 c-0.008-0.168-0.012-0.34-0.02-0.504C4.232,79.492,4.436,79.5,4.632,79.508z M11.096,130.812H11.1 c7.676-0.108,15.268-0.368,22.644-0.972l0.252-0.02c3.468-0.28,7.048-0.58,10.732,0.116c3.14,0.592,5.6,2.084,5.932,3.104 c0.076,0.232,0.024,0.42-0.156,0.612c-0.504,0.532-1.768,0.86-2.916,1.128c-10.46,2.444-23.324,3.284-36.492,2.484V130.812z M3.968,96.556l4.868-0.008v51.7l-4.868-0.008V96.556z M17.136,164.692H3.968v-13.62l6.096,0.012c1.9,0,3.684,0.716,5.028,2.012 c1.328,1.28,2.06,2.964,2.056,4.748L17.136,164.692z M17.052,151.048c-1.628-1.564-3.716-2.476-5.956-2.704v-10.176 c3.168,0.196,6.328,0.328,9.432,0.328c9.864,0,19.256-0.96,27.26-2.832c1.332-0.308,2.692-0.668,3.368-1.384 c0.412-0.428,0.54-0.968,0.364-1.512c-0.552-1.708-3.824-3.192-6.624-3.72c-3.808-0.716-7.448-0.42-10.976-0.132l-0.248,0.02 c-7.352,0.604-14.92,0.864-22.576,0.968V126.5c5.972,0.16,11.804,0.068,17.276-0.452c1.012-0.096,2.02-0.204,3.032-0.312 c3.756-0.404,7.636-0.828,11.876-0.6c5.012,0.256,11.52,1.824,13.708,4.228c0.836,0.912,0.904,1.816,0.868,2.504 c-0.216,4.5-5.748,8.264-14.432,9.82c-8.852,1.584-20.724,0.816-30.98-2c-0.256-0.076-0.492,0.076-0.56,0.32 c-0.068,0.24,0.076,0.492,0.316,0.556c6.804,1.868,14.308,2.844,21.2,2.844c3.628,0,7.084-0.272,10.18-0.824 c9.128-1.636,14.944-5.724,15.184-10.668c0.04-0.796-0.032-1.992-1.1-3.164c-2.38-2.608-9.012-4.248-14.332-4.52 c-4.304-0.22-8.224,0.2-12.02,0.604c-1.004,0.108-2.008,0.216-3.02,0.312c-5.448,0.516-11.248,0.608-17.192,0.448v-10.564 l28.804-2.08c4.564-0.336,9.284-0.672,13.74,0.64c4.804,1.416,8.492,4.912,9.388,8.908c0.048,0.212,0.236,0.352,0.44,0.352 c0.032,0,0.068-0.004,0.096-0.008c0.248-0.056,0.4-0.3,0.344-0.544c-1.172-5.236-5.94-8.38-10.012-9.58 c-4.608-1.356-9.632-0.992-14.06-0.672l-28.744,2.072v-7.14c2.024,0.344,3.948,0.224,5.244,0.02 c2.752-0.432,5.392-1.416,7.944-2.364c0.764-0.284,1.528-0.568,2.292-0.836c6.416-2.252,13.104-3.54,19.884-3.824 c4.448-0.2,15.268,0.204,19.268,7.8c0.852,1.624,1.32,3.476,1.768,5.264c0.464,1.856,0.948,3.772,1.864,5.5 c1.184,2.224,3.656,3.96,6.02,4.22c0.2,0.02,0.396,0.032,0.588,0.032c1.336,0,2.504-0.516,3.332-1.492 c1.004-1.176,1.296-2.772,1.492-4.176c0.852-6.164,0.764-12.4-0.252-18.528c-0.044-0.244-0.28-0.416-0.524-0.372 c-0.248,0.04-0.416,0.276-0.376,0.52c1.008,6.04,1.092,12.18,0.252,18.252c-0.188,1.336-0.436,2.724-1.28,3.712 c-0.96,1.124-2.22,1.252-3.136,1.148c-2.048-0.224-4.28-1.8-5.312-3.744c-0.868-1.632-1.336-3.496-1.788-5.296 c-0.46-1.84-0.94-3.748-1.844-5.464c-4.244-8.052-15.472-8.48-20.112-8.284c-6.868,0.284-13.644,1.588-20.144,3.872 c-0.768,0.272-1.54,0.556-2.308,0.84c-2.512,0.932-5.108,1.9-7.768,2.32c-1.82,0.284-3.524,0.192-5.1-0.116v-9.48 c2.512-0.084,4.872-1.044,6.672-2.776c1.888-1.82,2.924-4.232,2.92-6.796v-0.488h18.86c0.66,0.116,1.324,0.188,1.98,0.328 c12.756,2.652,23.148,8.544,28.516,16.168c0.84,1.192,2.08,2.292,3.316,2.292c0.288,0,0.58-0.06,0.864-0.192 c0.836-0.396,1.188-1.276,1.036-2.612c-0.472-4.4-2.132-8.808-4.796-12.752c-0.136-0.204-0.416-0.26-0.628-0.12 c-0.208,0.14-0.26,0.42-0.12,0.628c2.58,3.82,4.188,8.084,4.648,12.34c0.136,1.232-0.236,1.556-0.524,1.692 c-0.988,0.456-2.26-0.676-3.052-1.8c-5.164-7.34-14.868-13.068-26.784-15.972h37.716v0.912c0,6.376,3.796,11.848,9.232,14.368 c-2.136,3.048-3.708,6.472-4.44,10.164c-0.048,0.244,0.108,0.484,0.356,0.532c0.032,0.004,0.064,0.008,0.088,0.008 c0.212,0,0.404-0.148,0.444-0.364c0.72-3.628,2.284-6.984,4.396-9.968c1.8,0.708,3.744,1.132,5.788,1.132 c0.2,0,0.384-0.052,0.58-0.06c-3.324,3.852-3.54,9.508-3.244,15.08c0.328,6.124,0.832,12.312,1.504,18.392 c0.812,7.416,2.152,14.864,5.38,21.068H91.636v0.008c-0.124-1.684,0.136-3.44,0.436-5.168c0.108-0.624,0.216-1.244,0.304-1.86 c0.72-4.988,0.18-10.108-1.568-14.812c-1.192-3.208-2.832-5.16-4.88-5.812c-3.596-1.152-6.864,1.856-9.644,4.752 c-10.372,10.796-23.212,18.66-37.204,22.896H19.964C19.932,155.2,18.908,152.836,17.052,151.048z M90.744,157.716h-8.956 c-0.008-1.832,0.168-3.7,0.34-5.504c0.216-2.304,0.44-4.684,0.296-7.052c-0.02-0.296-0.064-0.912-0.524-1.26 c-0.452-0.336-1.06-0.276-1.796,0.168c-3.408,2.068-6.488,4.756-9.468,7.356c-2.528,2.204-5.116,4.436-7.9,6.292H42.188 c13.032-4.456,24.972-12.064,34.744-22.232c2.6-2.704,5.636-5.512,8.74-4.516c1.764,0.564,3.212,2.328,4.3,5.252 c1.688,4.548,2.212,9.504,1.512,14.332c-0.084,0.608-0.192,1.216-0.3,1.832C90.88,154.152,90.62,155.952,90.744,157.716z M81.228,152.128c-0.172,1.828-0.352,3.716-0.344,5.588H64.132c2.472-1.732,4.84-3.632,7.104-5.608 c2.948-2.576,6.004-5.24,9.34-7.264c0.38-0.228,0.668-0.308,0.78-0.22c0.128,0.1,0.156,0.448,0.164,0.592 C81.66,147.512,81.436,149.86,81.228,152.128z M29.348,168.796c-0.584,0.584-1.364,0.908-2.184,0.908c-0.004,0-0.004,0-0.004,0 l-6.008-0.012c-0.824,0-1.6-0.328-2.188-0.916c-0.036-0.036-0.044-0.084-0.08-0.12h10.552 C29.404,168.704,29.388,168.756,29.348,168.796z M19.972,164.692l0.008-4.704h153.8l0.008,4.704H19.972z M176.208,169.044 c-0.584,0.584-1.364,0.908-2.184,0.908c-0.004,0-0.004,0-0.008,0l-6.004-0.008c-1.012,0-1.856-0.524-2.408-1.28h10.876 C176.388,168.788,176.32,168.932,176.208,169.044z M189.84,164.02c-0.484-0.016-1.084-0.036-1.812-0.036 c-0.024,0-0.048,0-0.072,0l-11.332,0.02l-0.012-7.424c-0.004-1.784,0.728-3.468,2.056-4.748c1.344-1.296,3.124-2.008,5.024-2.012 l6.652-0.016l0.02,11.916c0,0.732,0.024,1.328,0.044,1.812c0.008,0.168,0.012,0.34,0.02,0.504 C190.24,164.032,190.032,164.024,189.84,164.02z M191.216,146.968l-4.592,0.008v-20.632c0.04-0.036,0.056-0.084,0.096-0.116 c-0.032-0.012-0.064-0.016-0.096-0.028V95.28l4.592,0.008V146.968z M191.352,69.364h-4.848c0.052-0.536,0.116-1.072,0.116-1.62 v-11.8c0-12.428-13.028-22.716-29.904-24.42v-0.276h-4.92h-15.844h-27.84H87.348h-8.336c-0.08-0.024-0.164-0.048-0.248-0.024 c-0.012,0.004-0.016,0.02-0.032,0.024H56.72H43.66h-7.708v0.632c-15.5,2.496-27.116,12.328-27.116,24.064v11.8 c0,0.544,0.064,1.08,0.116,1.62H4.104V57.808c0-16.948,15.576-30.74,34.72-30.74h117.808c19.144,0,34.72,13.788,34.72,30.74 V69.364z"></path> <path d="M10.568,155.46c-0.768,0-1.484,0.292-2.016,0.824c-0.508,0.508-0.788,1.176-0.788,1.88 c-0.004,0.708,0.272,1.376,0.78,1.884c0.532,0.536,1.248,0.832,2.016,0.832h0.004c0.76,0,1.476-0.292,2.008-0.824 c0.508-0.504,0.788-1.176,0.788-1.88c0.004-0.708-0.272-1.376-0.78-1.884C12.048,155.756,11.332,155.46,10.568,155.46z M11.772,159.26c-0.316,0.316-0.748,0.492-1.208,0.492H10.56c-0.464,0-0.896-0.176-1.212-0.5 c-0.292-0.292-0.452-0.676-0.452-1.084s0.164-0.788,0.456-1.08c0.316-0.32,0.748-0.496,1.212-0.496h0.004 c0.46,0,0.892,0.176,1.208,0.496c0.292,0.296,0.452,0.684,0.452,1.088S12.064,158.964,11.772,159.26z"></path> <path d="M115.476,142.98c0.12,0.216,0.396,0.304,0.616,0.176c0.22-0.124,0.296-0.4,0.172-0.616 c-2.056-3.676-3.324-7.848-3.668-12.064c-0.08-0.948,0.064-1.524,0.436-1.764c0.176-0.108,0.348-0.144,0.544-0.092 c0.516,0.12,1.168,0.772,1.712,1.696c4.392,7.52,12.908,12.996,23.364,15.02c3.976,0.772,7.996,1.052,12.016,1.052 c5.432,0,10.868-0.512,16.196-1.012c0.248-0.024,0.432-0.244,0.412-0.496c-0.028-0.248-0.236-0.428-0.496-0.408 c-9.208,0.864-18.728,1.76-27.952-0.024c-10.2-1.976-18.492-7.292-22.752-14.588c-0.32-0.552-1.192-1.86-2.28-2.12 c-0.44-0.104-0.872-0.032-1.248,0.216c-1.012,0.652-0.892,2.12-0.852,2.6C112.048,134.892,113.356,139.192,115.476,142.98z"></path> <path d="M183.192,154.192c-1.544,0-2.796,1.22-2.796,2.716c0.004,1.492,1.26,2.704,2.8,2.704h0.004 c0.768,0,1.484-0.296,2.016-0.832c0.508-0.508,0.784-1.176,0.78-1.884c0-0.708-0.28-1.376-0.788-1.884 C184.676,154.484,183.96,154.192,183.192,154.192z M184.412,157.98c-0.316,0.32-0.748,0.496-1.212,0.5h-0.004 c-0.916,0-1.664-0.704-1.668-1.576c0-0.868,0.748-1.58,1.664-1.58h0.004c0.46,0,0.896,0.176,1.212,0.496 c0.292,0.292,0.456,0.676,0.456,1.08S184.704,157.688,184.412,157.98z"></path> <path d="M186.708,85.356c0.004-0.708-0.272-1.376-0.78-1.888c-0.532-0.532-1.252-0.828-2.016-0.828 c-0.764,0-1.48,0.292-2.012,0.824c-0.508,0.504-0.788,1.176-0.788,1.88c-0.004,0.708,0.272,1.376,0.78,1.884 c0.532,0.536,1.248,0.832,2.016,0.832h0.004c0.76,0,1.476-0.292,2.008-0.824C186.428,86.732,186.708,86.064,186.708,85.356z M185.116,86.436c-0.316,0.316-0.748,0.492-1.208,0.492h-0.004c-0.464,0-0.896-0.176-1.212-0.5 c-0.292-0.292-0.452-0.676-0.452-1.08s0.164-0.788,0.456-1.084c0.316-0.316,0.748-0.492,1.208-0.492h0.004 c0.46,0,0.896,0.176,1.212,0.5c0.292,0.292,0.452,0.676,0.452,1.084C185.576,85.76,185.412,86.144,185.116,86.436z"></path> <path d="M11.272,89.332c1.548,0,2.8-1.22,2.8-2.712c-0.004-1.492-1.26-2.704-2.8-2.704h-0.004c-0.768,0-1.484,0.296-2.016,0.832 c-0.508,0.508-0.784,1.176-0.78,1.884c0,0.708,0.28,1.376,0.788,1.884C9.792,89.036,10.508,89.332,11.272,89.332z M10.06,85.54 c0.316-0.32,0.748-0.496,1.212-0.5h0.004c0.916,0,1.664,0.708,1.668,1.576c0,0.868-0.748,1.576-1.664,1.58h-0.004 c-0.464,0-0.896-0.176-1.212-0.496c-0.292-0.292-0.456-0.676-0.456-1.084C9.604,86.22,9.764,85.836,10.06,85.54z"></path> <path d="M100.252,78.304c0-1.472-1.192-2.664-2.664-2.664c-1.472,0-2.664,1.192-2.664,2.664c0,1.008,0.58,1.852,1.408,2.304 l-2.596,5.88h7.7l-2.596-5.88C99.672,80.16,100.252,79.312,100.252,78.304z"></path> </g> </g> </g> </g></svg>